<svg id="Layer_1" data-name="Layer 1" 
    xmlns="http://www.w3.org/2000/svg" width="250" height="250" viewBox="0 0 250 250">
    <title>deposit-01-01</title>
    <g id="Artboard">
        <g id="confirm">
            <ellipse id="Oval" cx="124.9755" cy="126.0683" rx="72.1602" ry="72.6477" style="fill:#eff3f7"/>
            <g id="Group" style="opacity:0.30000001192092896">
                <rect id="Rectangle-path" x="221.4946" y="89.6609" width="19.4794" height="4.1792" style="fill:#ff3365;opacity:0.5;isolation:isolate"/>
                <rect x="204.4492" y="89.6609" width="9.7433" height="4.1792" style="fill:#ff3365;opacity:0.5;isolation:isolate"/>
            </g>
            <g id="Group-2" style="opacity:0.30000001192092896">
                <rect x="34.2434" y="143.2685" width="19.4794" height="4.1792" style="fill:#ff3365;opacity:0.5;isolation:isolate"/>
                <rect x="17.198" y="143.2685" width="9.7433" height="4.1792" style="fill:#ff3365;opacity:0.5;isolation:isolate"/>
            </g>
            <g id="Group-3" style="opacity:0.46000000834465027">
                <g style="opacity:0.5">
                    <rect x="195.0343" y="121.8155" width="34.2346" height="4.1792" style="fill:#72d6c8"/>
                </g>
            </g>
            <path d="M51.7905,59.0276a9.2638,9.2638,0,1,1,6.5505-2.7133A9.2638,9.2638,0,0,1,51.7905,59.0276Zm0-14.252a4.9882,4.9882,0,1,0,4.9882,4.9882,4.9882,4.9882,0,0,0-4.9882-4.9882Z" style="fill:#ff3365;opacity:0.30000001192092896;isolation:isolate"/>
            <path d="M166.9254,205.2733A11.2135,11.2135,0,1,1,178.12,194.0409v0q.0006.36-.0219.72A11.23,11.23,0,0,1,166.9254,205.2733ZM166.89,187.092a6.9829,6.9829,0,1,0,1.34.1276,7.0938,7.0938,0,0,0-1.34-.1205Z" style="fill:#ff3365;opacity:0.30000001192092896;isolation:isolate"/>
            <circle id="Oval-2" cx="150.3291" cy="58.54" r="4.3881" style="fill:#ff3365;opacity:0.30000001192092896;isolation:isolate"/>
            <path d="M124.9755,208.955a82.8867,82.8867,0,1,1,82.8867-82.8867h0a82.8865,82.8865,0,0,1-82.8863,82.8867h0Zm0-165.0557a82.1691,82.1691,0,1,0,82.169,82.1692h0a82.169,82.169,0,0,0-82.1688-82.1692Z" style="fill:#72d6c8"/>
            <path d="M124.9761,209.4551h-.0005a83.3865,83.3865,0,1,1,.0005,0Zm-.0005-165.0557a81.669,81.669,0,1,0,81.6689,81.669A81.7618,81.7618,0,0,0,124.9756,44.3994Z" style="fill:#72d6c8"/>
            <g id="Artboard-2">
                <g id="deposit">
                    <path d="M173.03,101.6171v62.9464a3.8792,3.8792,0,0,1-1.0739,2.8212,3.9286,3.9286,0,0,1-2.78,1.2122H134.9636l.9249,8.2329a1.4967,1.4967,0,0,0,.533.97l2.2287,1.8508a1.9452,1.9452,0,0,1,.61,2.1,1.8031,1.8031,0,0,1-1.689,1.2764H111.9779a1.7654,1.7654,0,0,1-1.7662-1.2764,1.8179,1.8179,0,0,1,.5331-2.1l2.2286-1.8508a1.4385,1.4385,0,0,0,.456-.97l.8478-8.2329H80.11a3.9286,3.9286,0,0,1-2.78-1.2122,3.88,3.88,0,0,1-1.0739-2.8212V101.6171A3.88,3.88,0,0,1,77.33,98.7957a3.93,3.93,0,0,1,2.78-1.2121h89.0733a3.9287,3.9287,0,0,1,2.7753,1.2144A3.8791,3.8791,0,0,1,173.03,101.6171Z" style="fill:#fff"/>
                    <path d="M169.1459,97.5836H80.1081A3.9273,3.9273,0,0,0,77.33,98.7958a3.8805,3.8805,0,0,0-1.0736,2.8214v62.94a3.8805,3.8805,0,0,0,1.0736,2.8214,3.9263,3.9263,0,0,0,2.7785,1.2121h34.16l-.8474,8.2329a1.4268,1.4268,0,0,1-.4623.97l-2.2277,1.8571a1.8184,1.8184,0,0,0-.5393,2.1,1.7646,1.7646,0,0,0,1.7655,1.2764h25.5513a1.8088,1.8088,0,0,0,1.6882-1.2764,1.9078,1.9078,0,0,0-.642-2.1l-2.2277-1.8571a1.5173,1.5173,0,0,1-.5393-.97l-.8474-8.2265h34.2374a3.9268,3.9268,0,0,0,2.7785-1.2122,3.88,3.88,0,0,0,1.0734-2.8212V101.6171a3.88,3.88,0,0,0-1.0846-2.8325A3.9271,3.9271,0,0,0,169.1459,97.5836ZM135.3,179.0827l2.2277,1.857a.3311.3311,0,0,1,.1541.3255.2889.2889,0,0,1-.2311.1594H111.8866c-.2311,0-.2311-.1594-.3081-.2424a.2064.2064,0,0,1,.0211-.2911.2094.2094,0,0,1,.0559-.0345l2.2278-1.7741a2.6376,2.6376,0,0,0,1.0721-2.1l.8474-8.4754h17.5777l.8474,8.5519A3.0712,3.0712,0,0,0,135.3,179.0827Zm36.1565-14.5257a2.3087,2.3087,0,0,1-.6362,1.6955,2.3372,2.3372,0,0,1-1.6685.7234H80.1081a2.3364,2.3364,0,0,1-1.6661-.7213,2.3087,2.3087,0,0,1-.6387-1.6911V154.0713h93.6473Zm0-12.1259H77.8033v-50.814a2.309,2.309,0,0,1,.6363-1.6954,2.3372,2.3372,0,0,1,1.6685-.7234h89.0442a2.337,2.337,0,0,1,1.6684.7234,2.3082,2.3082,0,0,1,.6363,1.6954Z" style="fill:#72d6c8"/>
                    <path d="M124.2071,165.59a5.2313,5.2313,0,1,0-5.2313-5.2313h0A5.2313,5.2313,0,0,0,124.2071,165.59Zm0-8.7119a3.4876,3.4876,0,1,1-3.4876,3.4876h0A3.4876,3.4876,0,0,1,124.2071,156.8781Z" style="fill:#72d6c8;opacity:0.5299999713897705;isolation:isolate"/>
                    <path id="Rectangle-path-2" d="M101.3979,123.1023h0a.8724.8724,0,0,1,1.2291.0983l9.6123,11.2829a.8722.8722,0,0,1-.0982,1.2286h0a.8722.8722,0,0,1-1.2291-.0983L101.3,124.3315A.8723.8723,0,0,1,101.3979,123.1023Z" style="fill:#ff3365"/>
                    <path d="M111.1636,135.4758h0a.8723.8723,0,0,1,0-1.2331l17.8789-17.8789a.8723.8723,0,0,1,1.2331,0h0a.8724.8724,0,0,1,0,1.233l-17.8789,17.879A.8723.8723,0,0,1,111.1636,135.4758Z" style="fill:#ff3365"/>
                    <path d="M129.32,125.1145a.8787.8787,0,0,0-.8826.8746.8907.8907,0,0,0,.0043.0909q.075.7756.075,1.57a17.8475,17.8475,0,1,1-8.0174-14.87.8659.8659,0,0,0,1.3518-.7039,1.0217,1.0217,0,0,0-.4547-.8535,19.6161,19.6161,0,1,0,8.9145,16.4332,12.8461,12.8461,0,0,0-.0751-1.7006.9159.9159,0,0,0-.9158-.8224Z" style="fill:#ff3365"/>
                    <rect x="132.9259" y="68.8115" width="50.5691" height="50.5691" style="fill:none"/>
                    <path d="M176.2412,92.8682h-4.0324v-.5158c-2.81.2485-5.62.5158-8.4367.4844-1.26,0-2.4635-.102-3.6922-.153-2.42.5544-5.6706-.3376-8.153-.1976-1.569.0893-2.01,1.0962-3.0118.3824H148.02a2.0279,2.0279,0,0,0-2.0165,2.0392h0v22.4334a2.028,2.028,0,0,0,2.0165,2.0393h28.2272a2.0278,2.0278,0,0,0,2.0165-2.039v0h0V94.9079a2.0507,2.0507,0,0,0-.5927-1.4444A2.005,2.005,0,0,0,176.2412,92.8682Z" style="fill:#fff"/>
                    <path d="M148.02,120.38h-.0029a3.0125,3.0125,0,0,1-3.0127-3.01V95.2363a3.0173,3.0173,0,0,1,3.0137-3.0122H176.251a3.0151,3.0151,0,0,1,3.0127,3.0108v22.1338a3.0134,3.0134,0,0,1-3.0127,3.0117H148.02Zm-.0009-2h28.23a1.0137,1.0137,0,0,0,1.0147-1.0127V95.2358a1.0145,1.0145,0,0,0-1.0137-1.0117H148.0186a1.0145,1.0145,0,0,0-1.0147,1.0132v22.1314a1.0022,1.0022,0,0,0,.2979.7158A.9737.9737,0,0,0,148.0186,118.38Z" style="fill:#72d6c8"/>
                    <path d="M173.16,93.2246h-2V86.0439a9.0291,9.0291,0,1,0-18.0518-.477c-.0049.1792-.0049.3159-.001.4517v7.206h-2V86.0439c-.0039-.1445-.0039-.3144,0-.4843a11.0541,11.0541,0,0,1,11.0244-10.7964c.0928,0,.1856.0014.2793.0039A11.03,11.03,0,0,1,173.16,86.0688Z" style="fill:#72d6c8"/>
                    <path d="M166.0575,103.3463a3.1212,3.1212,0,0,0-2.3093-3.0526,3.0226,3.0226,0,0,0-3.4379,1.5718,3.1963,3.1963,0,0,0,.6613,3.8061v2.9a2.0353,2.0353,0,0,0,4.0683.1379l0-.0142q.0018-.0618,0-.1237v-2.9A3.1543,3.1543,0,0,0,166.0575,103.3463Z" style="fill:#72d6c8;opacity:0.5299999713897705;isolation:isolate"/>
                </g>
            </g>
        </g>
    </g>
</svg>