<svg id="Layer_1" data-name="Layer 1" xmlns="http://www.w3.org/2000/svg" width="250" height="250" viewBox="0 0 250 250"><title>cost-01-01</title><g id="Artboard"><g id="confirm"><ellipse id="Oval" cx="124.9755" cy="126.0683" rx="72.1602" ry="72.6477" style="fill:#eff3f7"/><g id="Group" style="opacity:0.30000001192092896"><rect id="Rectangle-path" x="221.4946" y="89.6609" width="19.4794" height="4.1792" style="fill:#ff3365;opacity:0.5;isolation:isolate"/><rect x="204.4492" y="89.6609" width="9.7433" height="4.1792" style="fill:#ff3365;opacity:0.5;isolation:isolate"/></g><g id="Group-2" style="opacity:0.30000001192092896"><rect x="34.2434" y="143.2685" width="19.4794" height="4.1792" style="fill:#ff3365;opacity:0.5;isolation:isolate"/><rect x="17.198" y="143.2685" width="9.7433" height="4.1792" style="fill:#ff3365;opacity:0.5;isolation:isolate"/></g><g id="Group-3" style="opacity:0.46000000834465027"><g style="opacity:0.5"><rect x="195.0343" y="121.8155" width="34.2346" height="4.1792" style="fill:#72d6c8"/></g></g><path d="M51.7905,59.0276a9.2638,9.2638,0,1,1,6.5505-2.7133A9.2638,9.2638,0,0,1,51.7905,59.0276Zm0-14.252a4.9882,4.9882,0,1,0,4.9882,4.9882,4.9882,4.9882,0,0,0-4.9882-4.9882Z" style="fill:#ff3365;opacity:0.30000001192092896;isolation:isolate"/><path d="M166.9254,205.2733A11.2135,11.2135,0,1,1,178.12,194.0409v0q.0006.36-.0219.72A11.23,11.23,0,0,1,166.9254,205.2733ZM166.89,187.092a6.9829,6.9829,0,1,0,1.34.1276,7.0938,7.0938,0,0,0-1.34-.1205Z" style="fill:#ff3365;opacity:0.30000001192092896;isolation:isolate"/><circle id="Oval-2" cx="150.3291" cy="58.54" r="4.3881" style="fill:#ff3365;opacity:0.30000001192092896;isolation:isolate"/><path d="M124.9755,208.955a82.8867,82.8867,0,1,1,82.8867-82.8867h0a82.8865,82.8865,0,0,1-82.8863,82.8867h0Zm0-165.0557a82.1691,82.1691,0,1,0,82.169,82.1692h0a82.169,82.169,0,0,0-82.1688-82.1692Z" style="fill:#72d6c8"/><path d="M124.9761,209.4551h-.0005a83.3865,83.3865,0,1,1,.0005,0Zm-.0005-165.0557a81.669,81.669,0,1,0,81.6689,81.669A81.7618,81.7618,0,0,0,124.9756,44.3994Z" style="fill:#72d6c8"/><g id="cost"><circle cx="110.6518" cy="141.3214" r="28.3878" style="fill:#fff"/><path d="M110.6519,170.709A29.3877,29.3877,0,1,1,140.04,141.3213,29.4211,29.4211,0,0,1,110.6519,170.709Zm0-56.7754A27.3877,27.3877,0,1,0,138.04,141.3213,27.4188,27.4188,0,0,0,110.6519,113.9336Z" style="fill:#72d6c8"/><circle cx="140.0185" cy="110.9758" r="28.3878" style="fill:#fff"/><path d="M140.0186,140.3633a29.3877,29.3877,0,1,1,29.3877-29.3877A29.4211,29.4211,0,0,1,140.0186,140.3633Zm0-56.7754a27.3877,27.3877,0,1,0,27.3877,27.3877A27.4188,27.4188,0,0,0,140.0186,83.5879Z" style="fill:#ff3365"/><path d="M138.9033,122.3906v-2.6675a7.6944,7.6944,0,0,1-4.041-1.1626l.6338-1.77a7.0423,7.0423,0,0,0,3.8037,1.1358c1.875,0,3.1426-1.083,3.1426-2.5884,0-1.4527-1.0293-2.3506-2.9844-3.1431-2.6943-1.0566-4.3584-2.2715-4.3584-4.5693a4.3324,4.3324,0,0,1,3.9893-4.2525v-2.6674h1.6367v2.562a7.0545,7.0545,0,0,1,3.4346.9243l-.6612,1.7436a6.3855,6.3855,0,0,0-3.3281-.8984c-2.0332,0-2.7988,1.2153-2.7988,2.272,0,1.373.9765,2.06,3.2744,3.0107,2.7207,1.1094,4.0947,2.4829,4.0947,4.8335a4.5944,4.5944,0,0,1-4.1738,4.49v2.747Z" style="fill:#ff3365"/><path d="M109.9067,153.4v-2.667a7.6946,7.6946,0,0,1-4.041-1.1631l.6343-1.77a7.043,7.043,0,0,0,3.8037,1.1357c1.875,0,3.1426-1.083,3.1426-2.5879,0-1.4531-1.0293-2.3506-2.9844-3.1435-2.6943-1.0567-4.3584-2.2715-4.3584-4.5694a4.3316,4.3316,0,0,1,3.9893-4.2519v-2.668H111.73v2.5615a7.049,7.049,0,0,1,3.4346.9248l-.6612,1.7432a6.3879,6.3879,0,0,0-3.3281-.8984c-2.0332,0-2.7988,1.2158-2.7988,2.2724,0,1.3731.9766,2.06,3.2744,3.0108,2.7207,1.1094,4.0947,2.4824,4.0947,4.833a4.5939,4.5939,0,0,1-4.1738,4.49V153.4Z" style="fill:#72d6c8"/></g></g></g></svg>