<svg id="Layer_1" data-name="Layer 1" xmlns="http://www.w3.org/2000/svg" width="250" height="250" viewBox="0 0 250 250"><title>favourites-01-01</title><ellipse id="Oval" cx="124.9755" cy="126.0683" rx="72.1602" ry="72.6477" style="fill:#eff3f7"/><rect id="Rectangle-path" x="221.4946" y="89.6609" width="19.4794" height="4.1792" style="fill:#ff3365;opacity:0.5;isolation:isolate"/><rect x="204.4492" y="89.6609" width="9.7433" height="4.1792" style="fill:#ff3365;opacity:0.5;isolation:isolate"/><rect x="34.2434" y="143.2685" width="19.4794" height="4.1792" style="fill:#ff3365;opacity:0.5;isolation:isolate"/><rect x="17.198" y="143.2685" width="9.7433" height="4.1792" style="fill:#ff3365;opacity:0.5;isolation:isolate"/><g style="opacity:0.5"><rect x="195.0343" y="121.8155" width="34.2346" height="4.1792" style="fill:#72d6c8"/></g><path d="M51.7905,59.0276a9.2638,9.2638,0,1,1,6.5505-2.7133A9.2638,9.2638,0,0,1,51.7905,59.0276Zm0-14.252a4.9882,4.9882,0,1,0,4.9882,4.9882,4.9882,4.9882,0,0,0-4.9882-4.9882Z" style="fill:#ff3365;opacity:0.30000001192092896;isolation:isolate"/><path d="M166.9254,205.2733A11.2135,11.2135,0,1,1,178.12,194.0409v0q.0006.36-.0219.72A11.23,11.23,0,0,1,166.9254,205.2733ZM166.89,187.092a6.9829,6.9829,0,1,0,1.34.1276,7.0938,7.0938,0,0,0-1.34-.1205Z" style="fill:#ff3365;opacity:0.30000001192092896;isolation:isolate"/><circle id="Oval-2" cx="150.3291" cy="58.54" r="4.3881" style="fill:#ff3365;opacity:0.30000001192092896;isolation:isolate"/><path d="M124.9755,208.955a82.8867,82.8867,0,1,1,82.8867-82.8867h0a82.8865,82.8865,0,0,1-82.8863,82.8867h0Zm0-165.0557a82.1691,82.1691,0,1,0,82.169,82.1692h0a82.169,82.169,0,0,0-82.1688-82.1692Z" style="fill:#72d6c8"/><path d="M124.9761,209.4551h-.0005a83.3865,83.3865,0,1,1,.0005,0Zm-.0005-165.0557a81.669,81.669,0,1,0,81.6689,81.669A81.7618,81.7618,0,0,0,124.9756,44.3994Z" style="fill:#72d6c8"/><circle id="Oval-3" cx="124.4949" cy="125.5" r="46.5" style="fill:#fff"/><path d="M124.4255,173.8416c-26.7475,0-48.4306-21.4549-48.4306-47.9208S97.678,78,124.4255,78s48.4306,21.4549,48.4306,47.9208C172.8271,152.3748,151.161,173.8129,124.4255,173.8416Zm0-93.9842c-25.7107,0-46.5534,20.6233-46.5534,46.0634s20.8427,46.0634,46.5534,46.0634,46.5535-20.6233,46.5535-46.0634C170.95,100.4922,150.1244,79.8862,124.4255,79.8574Z" style="fill:#72d6c8"/><path id="Shape-2" d="M151.6579,115.9682H132.3413l-5.8677-17.8088a2.116,2.116,0,0,0-3.994,0l-5.8676,17.8088H97.1646a2.1275,2.1275,0,0,0-2.0987,2.1339,1.6015,1.6015,0,0,0,.0363.358,2.0631,2.0631,0,0,0,.8787,1.5054l15.8745,11.3781-6.0927,18.0135a2.2,2.2,0,0,0,.7262,2.4042,2.0123,2.0123,0,0,0,1.1837.5188,2.5447,2.5447,0,0,0,1.3144-.4823l15.49-11.21,15.49,11.2246a2.4363,2.4363,0,0,0,1.3144.4823,1.8672,1.8672,0,0,0,1.1691-.5188,2.1342,2.1342,0,0,0,.7262-2.4042l-6.0927-18.0135,15.7438-11.48.3776-.3361a2.0549,2.0549,0,0,0,.5129-2.3481,2.0317,2.0317,0,0,0-2.06-1.2181Z" style="fill:#eff3f7"/><path d="M141.2807,153.0109a3.11,3.11,0,0,1-1.7356-.6212l-15.0685-10.9176L109.3936,152.39a3.3623,3.3623,0,0,1-1.7356.6212,2.6781,2.6781,0,0,1-1.6121-.665,2.89,2.89,0,0,1-.98-3.23l5.9185-17.4873L95.5964,120.565A2.8462,2.8462,0,0,1,94.42,118.57a2.3983,2.3983,0,0,1-.0436-.4676,2.8488,2.8488,0,0,1,2.8249-2.8647h18.9174l5.7-17.3119a2.8407,2.8407,0,0,1,5.3665,0l5.7079,17.3119h18.7647a2.95,2.95,0,0,1,2.9556,2.8647,2.8868,2.8868,0,0,1-.8714,1.9219l-.0581.0584-.3776.3362-15.3589,11.2023,5.9185,17.5019a2.8677,2.8677,0,0,1-.9731,3.2227A2.5189,2.5189,0,0,1,141.2807,153.0109Zm-16.8041-13.3365,15.9181,11.5388a1.736,1.736,0,0,0,.886.3435,1.21,1.21,0,0,0,.7261-.3654,1.4154,1.4154,0,0,0,.4866-1.5931l-6.2743-18.51,16.18-11.795.2978-.2631a1.3209,1.3209,0,0,0,.3527-1.5517,1.3056,1.3056,0,0,0-1.3912-.7575h-19.84l-6.0346-18.3131a1.3913,1.3913,0,0,0-2.6143,0l-6.0347,18.3058h-19.97a1.3916,1.3916,0,0,0-1.3725,1.4031.8717.8717,0,0,0,0,.1827v.1315a1.3234,1.3234,0,0,0,.61.9792l16.2812,11.6923-6.1951,18.4885a1.4669,1.4669,0,0,0,.4793,1.5858,1.3846,1.3846,0,0,0,.7261.3654,1.8729,1.8729,0,0,0,.9-.3508Z" style="fill:#72d6c8"/></svg>