<svg id="Layer_1" data-name="Layer 1" xmlns="http://www.w3.org/2000/svg" width="250" height="250" viewBox="0 0 250 250"><title>support-01-01</title><g id="Artboard"><g id="confirm"><ellipse id="Oval" cx="124.9755" cy="126.0683" rx="72.1602" ry="72.6477" style="fill:#eff3f7"/><g id="Group" style="opacity:0.30000001192092896"><rect id="Rectangle-path" x="221.4946" y="89.6609" width="19.4794" height="4.1792" style="fill:#ff3365;opacity:0.5;isolation:isolate"/><rect x="204.4492" y="89.6609" width="9.7433" height="4.1792" style="fill:#ff3365;opacity:0.5;isolation:isolate"/></g><g id="Group-2" style="opacity:0.30000001192092896"><rect x="34.2434" y="143.2685" width="19.4794" height="4.1792" style="fill:#ff3365;opacity:0.5;isolation:isolate"/><rect x="17.198" y="143.2685" width="9.7433" height="4.1792" style="fill:#ff3365;opacity:0.5;isolation:isolate"/></g><g id="Group-3" style="opacity:0.46000000834465027"><g style="opacity:0.5"><rect x="195.0343" y="121.8155" width="34.2346" height="4.1792" style="fill:#72d6c8"/></g></g><path d="M51.7905,59.0276a9.2638,9.2638,0,1,1,6.5505-2.7133A9.2638,9.2638,0,0,1,51.7905,59.0276Zm0-14.252a4.9882,4.9882,0,1,0,4.9882,4.9882,4.9882,4.9882,0,0,0-4.9882-4.9882Z" style="fill:#ff3365;opacity:0.30000001192092896;isolation:isolate"/><path d="M166.9254,205.2733A11.2135,11.2135,0,1,1,178.12,194.0409v0q.0006.36-.0219.72A11.23,11.23,0,0,1,166.9254,205.2733ZM166.89,187.092a6.9829,6.9829,0,1,0,1.34.1276,7.0938,7.0938,0,0,0-1.34-.1205Z" style="fill:#ff3365;opacity:0.30000001192092896;isolation:isolate"/><circle id="Oval-2" cx="150.3291" cy="58.54" r="4.3881" style="fill:#ff3365;opacity:0.30000001192092896;isolation:isolate"/><path d="M124.9755,208.955a82.8867,82.8867,0,1,1,82.8867-82.8867h0a82.8865,82.8865,0,0,1-82.8863,82.8867h0Zm0-165.0557a82.1691,82.1691,0,1,0,82.169,82.1692h0a82.169,82.169,0,0,0-82.1688-82.1692Z" style="fill:#72d6c8"/><path d="M124.9761,209.4551h-.0005a83.3865,83.3865,0,1,1,.0005,0Zm-.0005-165.0557a81.669,81.669,0,1,0,81.6689,81.669A81.7618,81.7618,0,0,0,124.9756,44.3994Z" style="fill:#72d6c8"/><g id="Artboard-2"><g id="support-icon"><ellipse id="Oval-3" cx="124" cy="125.5" rx="46" ry="46.5" style="fill:#fff"/><path d="M125,173c-25.9574,0-47-21.2665-47-47.5S99.0426,78,125,78s47,21.2665,47,47.5C171.9719,151.7217,150.9457,172.9716,125,173Zm0-93.1589c-24.9513,0-45.1783,20.4422-45.1783,45.6589S100.0487,171.1589,125,171.1589s45.1783-20.4422,45.1783-45.6589C170.15,100.2951,149.94,79.87,125,79.8411Z" style="fill:#72d6c8"/><g id="if_sos-01_287101" data-name="if sos-01 287101"><path id="Shape-2" d="M129.5518,153a.7185.7185,0,0,1-.4021-.1292.955.955,0,0,1-.3015-1.0841l3.2667-9.039h-2.3118a.7177.7177,0,0,1-.639-.3949.9909.9909,0,0,1-.0718-.8256l1.199-3.2882a.7179.7179,0,0,1,.9979-.4739.9334.9334,0,0,1,.4093,1.1487l-.718,2.0749h2.3118a.718.718,0,0,1,.639.3949.9977.9977,0,0,1,.0718.8256l-1.91,5.2913,3.8411-5.0256,1.9887-2.757H134.649a.7178.7178,0,0,1-.6389-.3948.9908.9908,0,0,1-.0647-.8257l3.1806-8.6154a.7176.7176,0,0,1,.9979-.4738.9332.9332,0,0,1,.4092,1.1487l-2.7641,7.3662h3.74a.7612.7612,0,0,1,.718.5025.9767.9767,0,0,1-.1508.9334l-3.0369,4.2143-6.9354,9.1252a.718.718,0,0,1-.5815.3015Z" style="fill:#72d6c8"/><path id="Shape-3" d="M106.5272,132.8974c-5.1477,0-9.3334-3.7046-9.3334-8.2564s4.1857-8.2564,9.3334-8.2564a5.2048,5.2048,0,0,1,3.59,1.0985c1.4359,1.3138,1.4359,3.4748,1.4359,5.9733v2.3692c0,2.4985.0646,4.6595-1.4359,5.9734A5.2267,5.2267,0,0,1,106.5272,132.8974Zm0-14.9046c-4.1426,0-7.51,2.98-7.51,6.6482s3.3672,6.6482,7.51,6.6482a3.4176,3.4176,0,0,0,2.319-.6246c.9333-.8328.9046-2.6779.8759-4.8174v-2.4123c0-2.1539.0574-3.9918-.8759-4.8175A3.4318,3.4318,0,0,0,106.5272,117.9928Z" style="fill:#72d6c8"/><path id="Shape-4" d="M144.3846,117.1026a.8759.8759,0,0,1-.8831-.8616,17.9542,17.9542,0,0,0-35.8974,0,.8867.8867,0,1,1-1.7733.0194v-.0194a19.75,19.75,0,0,1,39.4871,0,.8758.8758,0,0,1-.888.8634h0Z" style="fill:#72d6c8"/><path id="Shape-5" d="M143.1426,132.8974a5.22,5.22,0,0,1-3.59-1.0984c-1.4359-1.3139-1.4359-3.4677-1.4359-5.9734v-2.3692c0-2.4985-.0646-4.66,1.4359-5.9733a5.22,5.22,0,0,1,3.59-1.0985c5.1477,0,9.3333,3.7046,9.3333,8.2564S148.29,132.8974,143.1426,132.8974Zm0-14.8974a3.4243,3.4243,0,0,0-2.319.6246c-.9262.8328-.9046,2.678-.8759,4.8175v2.4123c0,2.1538-.05,3.9846.8759,4.8174a3.4243,3.4243,0,0,0,2.319.6246c4.1425,0,7.51-2.98,7.51-6.641S147.2564,118,143.1426,118Z" style="fill:#72d6c8"/><path id="Shape-6" d="M104.8544,130.0256a.9907.9907,0,0,1-.8472-.4379c-.2944-.4739-1.759-2.8718-1.7805-4.0133s1.4359-3.8985,1.7733-4.4226a1.041,1.041,0,0,1,1.2779-.38.761.761,0,0,1,.4452,1.0841,13.0663,13.0663,0,0,0-1.5795,3.69,12.0557,12.0557,0,0,0,1.5651,3.2882.7544.7544,0,0,1-.402,1.0913,1.1057,1.1057,0,0,1-.4452.0934Z" style="fill:#72d6c8"/><path id="Shape-7" d="M144.8154,130.0256a1.0915,1.0915,0,0,1-.4451-.0933.7182.7182,0,0,1-.4021-1.0913,12.0311,12.0311,0,0,0,1.5651-3.2882,13.3346,13.3346,0,0,0-1.5795-3.69.7611.7611,0,0,1,.4452-1.0841,1.041,1.041,0,0,1,1.2779.38c.3016.5241,1.7949,3.2164,1.7734,4.4225s-1.4862,3.54-1.7877,4.0134a.9834.9834,0,0,1-.8472.4379Z" style="fill:#72d6c8"/></g></g></g></g></g></svg>