<svg id="Layer_1" data-name="Layer 1" xmlns="http://www.w3.org/2000/svg" width="250" height="250" viewBox="0 0 250 250"><title>search-01-01</title><g id="Artboard"><g id="confirm"><ellipse id="Oval" cx="124.9755" cy="126.0683" rx="72.1602" ry="72.6477" style="fill:#eff3f7"/><g id="Group" style="opacity:0.30000001192092896"><rect id="Rectangle-path" x="221.4946" y="89.6609" width="19.4794" height="4.1792" style="fill:#ff3365;opacity:0.5;isolation:isolate"/><rect x="204.4492" y="89.6609" width="9.7433" height="4.1792" style="fill:#ff3365;opacity:0.5;isolation:isolate"/></g><g id="Group-2" style="opacity:0.30000001192092896"><rect x="34.2434" y="143.2685" width="19.4794" height="4.1792" style="fill:#ff3365;opacity:0.5;isolation:isolate"/><rect x="17.198" y="143.2685" width="9.7433" height="4.1792" style="fill:#ff3365;opacity:0.5;isolation:isolate"/></g><g id="Group-3" style="opacity:0.46000000834465027"><g style="opacity:0.5"><rect x="195.0343" y="121.8155" width="34.2346" height="4.1792" style="fill:#72d6c8"/></g></g><path d="M51.7905,59.0276a9.2638,9.2638,0,1,1,6.5505-2.7133A9.2638,9.2638,0,0,1,51.7905,59.0276Zm0-14.252a4.9882,4.9882,0,1,0,4.9882,4.9882,4.9882,4.9882,0,0,0-4.9882-4.9882Z" style="fill:#ff3365;opacity:0.30000001192092896;isolation:isolate"/><path d="M166.9254,205.2733A11.2135,11.2135,0,1,1,178.12,194.0409v0q.0006.36-.0219.72A11.23,11.23,0,0,1,166.9254,205.2733ZM166.89,187.092a6.9829,6.9829,0,1,0,1.34.1276,7.0938,7.0938,0,0,0-1.34-.1205Z" style="fill:#ff3365;opacity:0.30000001192092896;isolation:isolate"/><circle id="Oval-2" cx="150.3291" cy="58.54" r="4.3881" style="fill:#ff3365;opacity:0.30000001192092896;isolation:isolate"/><path d="M124.9755,208.955a82.8867,82.8867,0,1,1,82.8867-82.8867h0a82.8865,82.8865,0,0,1-82.8863,82.8867h0Zm0-165.0557a82.1691,82.1691,0,1,0,82.169,82.1692h0a82.169,82.169,0,0,0-82.1688-82.1692Z" style="fill:#72d6c8"/><path d="M124.9761,209.4551h-.0005a83.3865,83.3865,0,1,1,.0005,0Zm-.0005-165.0557a81.669,81.669,0,1,0,81.6689,81.669A81.7618,81.7618,0,0,0,124.9756,44.3994Z" style="fill:#72d6c8"/><circle cx="124.5" cy="125.5" r="46.5" style="fill:#fff"/><path d="M121.95,140a17.989,17.989,0,1,1,.05,0Zm0-34.195a16.195,16.195,0,1,0,16.1944,16.1956V122A16.1949,16.1949,0,0,0,121.95,105.805Z" style="fill:#72d6c8"/><rect x="141" y="131.9999" width="2" height="21" transform="translate(-59.1718 142.1464) rotate(-45)" style="fill:#72d6c8"/></g></g></svg>