<svg id="Layer_1" data-name="Layer 1" xmlns="http://www.w3.org/2000/svg" width="250" height="250" viewBox="0 0 250 250"><title>monthly_payment-01-01-01</title><g id="Artboard"><g id="confirm"><ellipse id="Oval" cx="124.9755" cy="126.0683" rx="72.1602" ry="72.6477" style="fill:#eff3f7"/><g id="Group" style="opacity:0.30000001192092896"><rect id="Rectangle-path" x="221.4946" y="89.6609" width="19.4794" height="4.1792" style="fill:#ff3365;opacity:0.5;isolation:isolate"/><rect x="204.4492" y="89.6609" width="9.7433" height="4.1792" style="fill:#ff3365;opacity:0.5;isolation:isolate"/></g><g id="Group-2" style="opacity:0.30000001192092896"><rect x="34.2434" y="143.2685" width="19.4794" height="4.1792" style="fill:#ff3365;opacity:0.5;isolation:isolate"/><rect x="17.198" y="143.2685" width="9.7433" height="4.1792" style="fill:#ff3365;opacity:0.5;isolation:isolate"/></g><g id="Group-3" style="opacity:0.46000000834465027"><g style="opacity:0.5"><rect x="195.0343" y="121.8155" width="34.2346" height="4.1792" style="fill:#72d6c8"/></g></g><path d="M51.7905,59.0276a9.2638,9.2638,0,1,1,6.5505-2.7133A9.2638,9.2638,0,0,1,51.7905,59.0276Zm0-14.252a4.9882,4.9882,0,1,0,4.9882,4.9882,4.9882,4.9882,0,0,0-4.9882-4.9882Z" style="fill:#ff3365;opacity:0.30000001192092896;isolation:isolate"/><path d="M166.9254,205.2733A11.2135,11.2135,0,1,1,178.12,194.0409h0q.0006.36-.0219.72A11.23,11.23,0,0,1,166.9254,205.2733ZM166.89,187.092a6.9829,6.9829,0,1,0,1.34.1276,7.0938,7.0938,0,0,0-1.34-.1205Z" style="fill:#ff3365;opacity:0.30000001192092896;isolation:isolate"/><circle id="Oval-2" cx="150.3291" cy="58.54" r="4.3881" style="fill:#ff3365;opacity:0.30000001192092896;isolation:isolate"/><path d="M124.9755,208.955a82.8867,82.8867,0,1,1,82.8867-82.8867h0a82.8865,82.8865,0,0,1-82.8863,82.8867h0Zm0-165.0557a82.1691,82.1691,0,1,0,82.169,82.1692h0a82.169,82.169,0,0,0-82.1688-82.1692h0Z" style="fill:#72d6c8"/><path d="M124.9761,209.4551h-.0005a83.3864,83.3864,0,1,1,.0005,0Zm-.0005-165.0557a81.669,81.669,0,1,0,81.6689,81.6691h0A81.7618,81.7618,0,0,0,124.9756,44.3994Z" style="fill:#72d6c8"/><g id="Artboard-2"><g id="monthly_payment_5_1" data-name="monthly payment 5 1"><rect x="86" y="99" width="54" height="73" rx="6.9" style="fill:#fff"/><path d="M135.1789,172H90.8137A5.8046,5.8046,0,0,1,85,166.2119V103.7881A5.8046,5.8046,0,0,1,90.8137,98h44.3652A5.8047,5.8047,0,0,1,141,103.7881v62.4238A5.8047,5.8047,0,0,1,135.1789,172ZM90.8137,99.4653a4.3351,4.3351,0,0,0-4.34,4.3228v62.4238a4.3351,4.3351,0,0,0,4.34,4.3228h44.3652a4.3426,4.3426,0,0,0,4.3474-4.3228V103.7881a4.3426,4.3426,0,0,0-4.3474-4.3228Z" style="fill:#72d6c8"/><path d="M93.5,115h22a.5.5,0,0,1,.5.5h0a.5.5,0,0,1-.5.5h-22a.5.5,0,0,1-.5-.5h0A.5.5,0,0,1,93.5,115Z" style="fill:#ff3365"/><path d="M93.5,127h38a.5.5,0,0,1,.5.5h0a.5.5,0,0,1-.5.5h-38a.5.5,0,0,1-.5-.5h0A.5.5,0,0,1,93.5,127Z" style="fill:#ff3365"/><path d="M93.5,139h38a.5.5,0,0,1,.5.5h0a.5.5,0,0,1-.5.5h-38a.5.5,0,0,1-.5-.5h0A.5.5,0,0,1,93.5,139Z" style="fill:#ff3365"/><path d="M93.5,150h38a.5.5,0,0,1,.5.5h0a.5.5,0,0,1-.5.5h-38a.5.5,0,0,1-.5-.5h0A.5.5,0,0,1,93.5,150Z" style="fill:#ff3365"/><circle cx="143.5" cy="99.5" r="22.5" style="fill:#fff"/><path d="M143.5,123A23.5,23.5,0,1,1,167,99.5h0A23.5,23.5,0,0,1,143.5,123Zm0-45.15A21.65,21.65,0,1,0,165.15,99.5h0A21.65,21.65,0,0,0,143.5,77.85Z" style="fill:#ff3365"/><path d="M143.1328,107.479v-1.8184a5.2451,5.2451,0,0,1-2.7549-.7924l.4326-1.2061a4.8,4.8,0,0,0,2.5928.7739c1.2783,0,2.1426-.7378,2.1426-1.7641,0-.99-.7021-1.6026-2.0342-2.1426-1.8369-.7207-2.9717-1.5488-2.9717-3.1152a2.9537,2.9537,0,0,1,2.7188-2.899V92.6968h1.1172v1.7466a4.8042,4.8042,0,0,1,2.34.63l-.45,1.1885a4.3527,4.3527,0,0,0-2.2685-.6123c-1.3858,0-1.9082.8286-1.9082,1.5488,0,.9361.666,1.4043,2.2324,2.0523,1.8545.7563,2.791,1.6929,2.791,3.2954a3.1313,3.1313,0,0,1-2.8447,3.06v1.8726Z" style="fill:#ff3365"/></g></g></g></g></svg>