<svg id="Layer_1" data-name="Layer 1" 
    xmlns="http://www.w3.org/2000/svg" width="250" height="250" viewBox="0 0 250 250">
    <title>key-01</title>
    <g id="Artboard">
        <g id="confirm">
            <ellipse id="Oval" cx="124.9755" cy="126.0683" rx="72.1602" ry="72.6477" style="fill:#eff3f7"/>
            <g id="Group" style="opacity:0.30000001192092896">
                <rect id="Rectangle-path" x="221.4946" y="89.6609" width="19.4794" height="4.1792" style="fill:#ff3365;opacity:0.5;isolation:isolate"/>
                <rect x="204.4492" y="89.6609" width="9.7433" height="4.1792" style="fill:#ff3365;opacity:0.5;isolation:isolate"/>
            </g>
            <g id="Group-2" style="opacity:0.30000001192092896">
                <rect x="34.2434" y="143.2685" width="19.4794" height="4.1792" style="fill:#ff3365;opacity:0.5;isolation:isolate"/>
                <rect x="17.198" y="143.2685" width="9.7433" height="4.1792" style="fill:#ff3365;opacity:0.5;isolation:isolate"/>
            </g>
            <g id="Group-3" style="opacity:0.46000000834465027">
                <g style="opacity:0.5">
                    <rect x="195.0343" y="121.8155" width="34.2346" height="4.1792" style="fill:#72d6c8"/>
                </g>
            </g>
            <path d="M51.7905,59.0276a9.2638,9.2638,0,1,1,6.5505-2.7133A9.2638,9.2638,0,0,1,51.7905,59.0276Zm0-14.252a4.9882,4.9882,0,1,0,4.9882,4.9882,4.9882,4.9882,0,0,0-4.9882-4.9882Z" style="fill:#ff3365;opacity:0.30000001192092896;isolation:isolate"/>
            <path d="M166.9254,205.2733A11.2135,11.2135,0,1,1,178.12,194.0412q.0006.36-.0219.72A11.23,11.23,0,0,1,166.9254,205.2733ZM166.89,187.092a6.9829,6.9829,0,1,0,1.34.1276,7.0938,7.0938,0,0,0-1.34-.1205Z" style="fill:#ff3365;opacity:0.30000001192092896;isolation:isolate"/>
            <circle id="Oval-2" cx="150.3291" cy="58.54" r="4.3881" style="fill:#ff3365;opacity:0.30000001192092896;isolation:isolate"/>
            <path class="line" stroke="#72D6C8" stroke-width="2" stroke-linecap="round" stroke-linejoin="round" opacity=".5" d="M124.9755,208.955a82.8867,82.8867,0,1,1,82.8867-82.8867h0a82.8865,82.8865,0,0,1-82.8864,82.8867Zm0-165.0557a82.1691,82.1691,0,1,0,82.169,82.1692v0A82.169,82.169,0,0,0,124.9755,43.8993Z" style="fill:#fff"/>
            <g id="if_icon-24-key_315222" data-name="if icon-24-key 315222">
                <path id="key-2" d="M120.4071,131.8925l-12.8438,12.63H99.0626v8.359H90.5619v8.359H76.3966V147.311l29.8452-29.3856a23.4585,23.4585,0,0,1,9.5536-28.1624,24.3717,24.3717,0,0,1,30.0178,3.18,23.3686,23.3686,0,0,1,3.234,29.5172,24.28,24.28,0,0,1-28.64,9.3943Zm23.9566-29.1652a8.5019,8.5019,0,1,0-8.6436,8.3578q.0714.0012.1429.0012A8.4308,8.4308,0,0,0,144.3637,102.7273Z" style="fill:#fff"/>
                <path class="draw" stroke="#72D6C8" fill="#72D6C8" d="M91.3346,162H75.6238V146.9918l29.7216-29.226a24.2206,24.2206,0,0,1,10.2425-28.7347,25.154,25.154,0,0,1,30.77,3.4145,24.1188,24.1188,0,0,1,3.4724,30.2567A25.05,25.05,0,0,1,120.608,132.774l-12.7356,12.5081h-8.037v8.3589H91.3346Zm-14.1653-1.52h12.62v-8.359H98.29v-8.359h8.9567l12.9906-12.7512.4637.1672a23.5,23.5,0,0,0,27.7162-9.1019,22.6182,22.6182,0,0,0-3.1389-28.5676,23.5888,23.5888,0,0,0-29.0537-3.07,22.7052,22.7052,0,0,0-9.2407,27.2593l.17.4559L77.1693,147.6226Zm58.7323-48.634a9.12,9.12,0,1,1,9.2735-9.1189,9.12,9.12,0,0,1-9.2735,9.1189Zm0-16.718a7.6,7.6,0,1,0,7.728,7.5991,7.6,7.6,0,0,0-7.728-7.5991Z" />
            </g>
            <g id="confirm-2" data-name="confirm">
                <ellipse id="Oval-5" cx="152.3734" cy="137.6265" rx="21.5464" ry="21.078" style="fill:#f0f8fa"/>
                <path d="M138.1913,132.4323a.7815.7815,0,0,1,1.085.0828L151.25,146.2685a.7416.7416,0,0,1-.0671,1.0465l-.0175.0149a.7815.7815,0,0,1-1.085-.0828l-11.9736-13.7534a.7415.7415,0,0,1,.0671-1.0465l.0175-.0149Z" style="fill:#ff3365"/>
                <path id="Rectangle-path-2" d="M150.18,147.3a.7413.7413,0,0,1-.0131-1.0483l.0131-.0131L171.9421,124.95a.7819.7819,0,0,1,1.0851,0,.7413.7413,0,0,1,.0131,1.0483l-.0131.0131L151.2653,147.3A.7816.7816,0,0,1,150.18,147.3Z" style="fill:#ff3365"/>
                <path id="Shape-2" d="M174.2738,134.2691a1.0655,1.0655,0,0,0-.7832.3358,1.0174,1.0174,0,0,0-.2711.7934,18.1737,18.1737,0,0,1,.0924,1.8368A20.9786,20.9786,0,0,1,157.208,157.522a21.5335,21.5335,0,0,1-24.0412-10.3258,20.5653,20.5653,0,0,1,4.3681-25.3275,21.7216,21.7216,0,0,1,26.1735-2.038,1.0587,1.0587,0,0,0,1.056.0572,1.0142,1.0142,0,0,0,.56-.8777,1.19,1.19,0,0,0-.5463-1.0012,23.8734,23.8734,0,0,0-28.7276,2.374,22.6018,22.6018,0,0,0-4.7018,27.8257A23.6693,23.6693,0,0,0,157.7671,159.5a23.0569,23.0569,0,0,0,17.6763-22.28,14.7249,14.7249,0,0,0-.0923-1.9873,1.0842,1.0842,0,0,0-1.0927-.9636Z" style="fill:#ff3365"/>
            </g>
        </g>
    </g>
</svg>