<svg id="Layer_1" data-name="Layer 1" 
    xmlns="http://www.w3.org/2000/svg" width="250" height="250" viewBox="0 0 250 250">
    <title>confirm-01-01</title>
    <g id="Artboard">
        <g id="confirm">
            <ellipse id="Oval" cx="124.9755" cy="126.0683" rx="72.1602" ry="72.6477" style="fill:#eff3f7"/>
            <g id="Group" style="opacity:0.30000001192092896">
                <rect id="Rectangle-path" x="221.4946" y="89.6609" width="19.4794" height="4.1792" style="fill:#ff3365;opacity:0.5;isolation:isolate"/>
                <rect x="204.4492" y="89.6609" width="9.7433" height="4.1792" style="fill:#ff3365;opacity:0.5;isolation:isolate"/>
            </g>
            <g id="Group-2" style="opacity:0.30000001192092896">
                <rect x="34.2434" y="143.2685" width="19.4794" height="4.1792" style="fill:#ff3365;opacity:0.5;isolation:isolate"/>
                <rect x="17.198" y="143.2685" width="9.7433" height="4.1792" style="fill:#ff3365;opacity:0.5;isolation:isolate"/>
            </g>
            <g id="Group-3" style="opacity:0.46000000834465027">
                <g style="opacity:0.5">
                    <rect x="195.0343" y="121.8155" width="34.2346" height="4.1792" style="fill:#72d6c8"/>
                </g>
            </g>
            <path d="M51.7905,59.0276a9.2638,9.2638,0,1,1,6.5505-2.7133A9.2638,9.2638,0,0,1,51.7905,59.0276Zm0-14.252a4.9882,4.9882,0,1,0,4.9882,4.9882,4.9882,4.9882,0,0,0-4.9882-4.9882Z" style="fill:#ff3365;opacity:0.30000001192092896;isolation:isolate"/>
            <path d="M166.9254,205.2733A11.2135,11.2135,0,1,1,178.12,194.0412q.0006.36-.0219.72A11.23,11.23,0,0,1,166.9254,205.2733ZM166.89,187.092a6.9829,6.9829,0,1,0,1.34.1276,7.0938,7.0938,0,0,0-1.34-.1205Z" style="fill:#ff3365;opacity:0.30000001192092896;isolation:isolate"/>
            <circle id="Oval-2" cx="150.3291" cy="58.54" r="4.3881" style="fill:#ff3365;opacity:0.30000001192092896;isolation:isolate"/>
            <path class="line" stroke="#72D6C8" stroke-width="2" stroke-linecap="round" stroke-linejoin="round" opacity=".5" d="M124.9755,208.955a82.8867,82.8867,0,1,1,82.8867-82.8867h0a82.8865,82.8865,0,0,1-82.8864,82.8867Zm0-165.0557a82.1691,82.1691,0,1,0,82.169,82.1692v0A82.169,82.169,0,0,0,124.9755,43.8993Z" style="fill:#fff"/>
>
            <g id="right-hand">
                <path id="Path-17" d="M159.9605,127.6216a10.8005,10.8005,0,0,1-9.24,0s-4.6986-2.9769-14.0886-9.0026q-3.7818-1.9512-5.68,0,.2005-.1075-3.4882,2.152l-30.92,36.5845a6.325,6.325,0,0,0-.6518,5.8463c-.0788.0718,2.2347,3.68,7.1267,1.4347-.1361.0574.7162,6.492,7.7355,5.6814-.3008-.1076,1.0386,6.2624,8.595,5.0859-.1432-.1,3.4523,4.8923,11.1162-.1q.1218-.0789,27.282-22.5963l7.8788-2.152Z" style="fill:#fff"/>
                <path d="M124.1479,178.3019a6.9858,6.9858,0,0,1-5.1-2.0731c-5.3074.6527-7.5994-2.3314-8.3443-3.6657a6.8914,6.8914,0,0,1-.5945-1.4346,7.046,7.046,0,0,1-7.65-5.3873v-.0645c-4.6914,1.65-6.962-1.7217-7.0622-1.8723a1.3878,1.3878,0,0,1-.1648-.33,7.0514,7.0514,0,0,1,.7163-6.4561l.0716-.1,30.9922-36.67.1-.0574c2.4567-1.5208,3.1945-1.98,3.395-2.109,1.5041-1.4993,3.6744-1.528,6.4463-.0861,11.0159,7.0658,13.7592,8.809,14.0743,8.9955a10.0139,10.0139,0,0,0,8.638,0l.7735-.3372,6.0237,24.4829-8.393,2.273c-27.0672,22.4528-27.16,22.51-27.2176,22.5532A12.6651,12.6651,0,0,1,124.1479,178.3019Zm-3.23-2.36c1.4325.9326,4.3835,1.93,9.1609-1.1836.1432-.1148,3.925-3.2352,27.2175-22.5532l.1218-.1,7.3415-1.987-5.2931-21.52a11.3865,11.3865,0,0,1-9.039-.3228v-.043c-.4728-.2152-1.4325-.8178-3.6458-2.2453l-10.55-6.7645c-3.2518-1.6714-4.3978-.495-4.7774-.1076l-.043-.0431-.1576.1291v.0072c-.5085.3946-1.497,1.0043-3.3162,2.152L97.1381,157.8074a5.5854,5.5854,0,0,0-.58,5.1577v.05c.2364.3443,2.1488,2.8694,6.1311,1.0115l.58,1.3127a.7171.7171,0,0,0,.4082-.581,5.7531,5.7531,0,0,0,6.4382,4.9745q.13-.0165.2588-.0392l.1361-.1578.487.1649-.1.8824.2579.38a.653.653,0,0,0,.2937-.5524,5.3887,5.3887,0,0,0,1.8765,3.0272,7.0984,7.0984,0,0,0,5.68,1.2912l.2507-.28,1.9769,1.3844Z" style="fill:#72d6c8"/>
                <g style="opacity:0.5">
                    <polygon id="Path-16" points="160.662 125.656 166.793 151.129 173.655 149.845 166.793 124.064 160.662 125.656" style="fill:#72d6c8"/>
                    <path d="M165.9913,152.37l-6.6182-27.4958,8.1868-2.152,7.4347,27.9405Zm-4.0325-25.9391,5.6441,23.45,4.72-.8824-6.2887-23.6292Z" style="fill:#72d6c8"/>
                </g>
                <rect x="99.5696" y="156.6688" width="22.3399" height="1.4347" transform="translate(-77.2275 116.1306) rotate(-42.49)" style="fill:#72d6c8"/>
                <rect x="108.1875" y="162.6365" width="21.6881" height="1.4347" transform="translate(-79.6404 126.1727) rotate(-43.32)" style="fill:#72d6c8"/>
                <rect x="119.2139" y="172.0791" width="6.5394" height="1.4347" transform="translate(-85.2937 131.694) rotate(-43.48)" style="fill:#72d6c8"/>
            </g>
            <g id="left-hand">
                <path id="Path-13" d="M91.3343,129.8q5.1009,1.9749,7.24,1.319.0429.2091,14.108-10.2641a9.8719,9.8719,0,0,1,5.201,0q0,.1658,14.5229,3.0922L145.62,134.0382q2.6685,4.9519-5.2726,7.7486c.3-.1586-5.895,1.8308-14.1795-5.8168.1574.245-3.3982,2.429-10.2376,2.3353q0,.137-18.6007,18.7407l-12.6342-4.6635Z" style="fill:#fff"/>
                <path class="draw" d="M97.5369,157.8893l-13.693-5.0455,7.0254-23.9881.7154.2811c4.0278,1.5569,5.9022,1.5642,6.7678,1.2975.4722-.2739,2.9833-2.0327,13.8934-10.156l.1216-.0865h.1431a10.61,10.61,0,0,1,5.573,0l.4937.1585c1.03.26,4.2925.9731,13.9577,2.9193h.1574l13.4712,10.2713.0716.1369a4.9259,4.9259,0,0,1,.4793,4.21c-.7154,1.86-2.7257,3.3517-6.1454,4.5554l-.2075-.4829.05.5117c-2.0962.346-7.5047.4469-14.2582-5.5573-1.3664.8866-4.7861,2.1191-9.9586,2.09-1.08,1.2326-4.8862,5.0456-18.35,18.5533Zm-11.94-5.9177,11.5968,4.2527c13.364-13.4068,17.3059-17.4144,18.0571-18.2217v-.44h.7154c6.124.0865,9.3791-1.7155,9.6581-1.9966a.66.66,0,0,0,0,.7713l1.08-.93c6.5174,6.0115,11.604,5.9466,13.4855,5.6439h.0787c2.8975-1.038,4.6431-2.27,5.18-3.6833a3.424,3.424,0,0,0-.3291-2.8832l-13.0133-9.8677c-4.75-.9586-8.3632-1.701-10.7313-2.2056a35.5487,35.5487,0,0,1-3.6915-.8721,9.1106,9.1106,0,0,0-4.6788,0c-10.9029,8.0873-13.414,9.9181-14.23,10.25-1.4881.4613-3.77.1081-6.9753-1.06Z" style="fill:#ff3365; stroke:#ff3365;"/>
                <g style="opacity:0.5">
                    <polygon id="Path-12" points="84.538 124.69 77.248 152.404 83.222 153.983 90.59 126.261 84.538 124.69" style="fill:#72d6c8"/>
                    <path d="M83.73,154.8548l-7.3545-1.9317L84.03,123.8174l7.44,1.9245Zm-5.6089-2.9625,4.593,1.211L89.71,126.7438l-4.6788-1.1749Z" style="fill:#72d6c8"/>
                </g>
                <g id="fingers">
                    <g id="Rectangle-7">
                        <rect id="path-1" x="137.5872" y="146.2185" width="9.8942" height="22.1356" rx="4.7222" transform="translate(-69.4709 146.855) rotate(-45)" style="fill:#fff"/>
                        <path class="draw" d="M146.8075,166.5677a4.91,4.91,0,0,1-3.4984-1.4416l-8.5348-8.5991a5.0147,5.0147,0,0,1,.1238-6.9245,4.9242,4.9242,0,0,1,6.8729-.1248l8.5349,8.599a5.0084,5.0084,0,0,1,1.0741,5.4315,4.9433,4.9433,0,0,1-4.5725,3.0739Zm-8.5349-17.1261a3.5126,3.5126,0,0,0-3.2563,2.1832,3.5586,3.5586,0,0,0,.7667,3.8643l8.5349,8.5991a3.5315,3.5315,0,0,0,5.9244-1.5994,3.5865,3.5865,0,0,0-.9165-3.4462l-8.5349-8.5991a3.4916,3.4916,0,0,0-2.5254-1.0019Z" style="fill:#ff3365; stroke:ff3365"/>
                    </g>
                    <g id="Rectangle-7-2">
                        <rect id="path-2" x="131.3788" y="152.2713" width="9.8942" height="22.1356" rx="4.7222" transform="translate(-75.5692 144.2379) rotate(-45)" style="fill:#fff"/>
                        <path class="draw" d="M140.5906,172.6224a4.8963,4.8963,0,0,1-3.4984-1.4416l-8.5349-8.5991a5.0148,5.0148,0,0,1,.1239-6.9245,4.9243,4.9243,0,0,1,6.8729-.1249l8.5348,8.5991a5.0152,5.0152,0,0,1,1.0712,5.4329,4.9507,4.9507,0,0,1-4.57,3.08Zm-8.5349-17.1261a3.5124,3.5124,0,0,0-3.2563,2.1831,3.5587,3.5587,0,0,0,.7666,3.8644l8.5349,8.599a3.5225,3.5225,0,0,0,4.9814.0266l.0265-.0266a3.5867,3.5867,0,0,0,0-5.0455l-8.5706-8.5631A3.4931,3.4931,0,0,0,132.0557,155.4963Z" style="fill:#ff3365;stroke:ff3365"/>
                    </g>
                    <g id="Rectangle-7-3">
                        <rect id="path-3" x="125.0021" y="158.5009" width="9.6509" height="21.5806" rx="4.6061" transform="translate(-81.6813 141.3862) rotate(-45)" style="fill:#fff"/>
                        <path  class="draw" d="M133.9873,178.3455a4.79,4.79,0,0,1-3.4125-1.4416l-8.3418-8.354a4.8759,4.8759,0,0,1,2.1635-8.1349,4.8017,4.8017,0,0,1,4.6616,1.2585l8.3274,8.3828a4.8849,4.8849,0,0,1,1.0479,5.2982,4.8219,4.8219,0,0,1-4.46,2.9982Zm-8.32-16.6648a3.3912,3.3912,0,0,0-3.1384,2.1108,3.4353,3.4353,0,0,0,.7418,3.7276l8.3274,8.3829a3.3764,3.3764,0,0,0,4.7749.0251h0l.0251-.0251a3.4381,3.4381,0,0,0,0-4.8365l-8.3274-8.3829a3.357,3.357,0,0,0-2.4109-1.0019Z"  style="fill:#ff3365;stroke:ff3365"/>
                    </g>
                    <g id="Rectangle-7-4">
                        <rect id="path-4" x="144.3839" y="142.4636" width="9.8942" height="17.1549" rx="4.7222" transform="translate(-63.0641 149.8319) rotate(-45)" style="fill:#fff"/>
                        <path  class="draw" d="M151.8512,158.56a4.9176,4.9176,0,0,1-3.4984-1.4416l-5.0079-5.0456a5.0147,5.0147,0,0,1,.1239-6.9245,4.9243,4.9243,0,0,1,6.8729-.1249l5.0079,5.0456a5.0084,5.0084,0,0,1,1.0741,5.4315,4.9434,4.9434,0,0,1-4.5725,3.0739Zm-5.0079-13.6014a3.512,3.512,0,0,0-3.2563,2.1831,3.5585,3.5585,0,0,0,.7666,3.8643l5.0079,5.0456a3.5224,3.5224,0,0,0,4.9813.0266l.0266-.0266a3.5868,3.5868,0,0,0,0-5.0456l-5.0079-5.0455a3.4917,3.4917,0,0,0-2.5468-1.0019Z"  style="fill:#ff3365;stroke:ff3365"/>
                    </g>
                    <path d="M133.5205,176.9213a10.4364,10.4364,0,0,1-1.2126-.0775l.1964-1.7208c1.5713.1807,2.6473,0,3.1938-.6022s.6491-1.4971.427-2.8479l1.708-.284c.3159,1.9187,0,3.3728-.854,4.302A4.5064,4.5064,0,0,1,133.5205,176.9213Z" style="fill:#ff3365;opacity:0.25;isolation:isolate"/>
                    <path d="M151.3933,157.6659a8.964,8.964,0,0,1-1.0588-.0649l.25-2.1624a2.9244,2.9244,0,0,0,2.3752-.3964,2.8877,2.8877,0,0,0,.2647-2.0759l2.1462-.36a4.4559,4.4559,0,0,1-.8227,3.9283A4.11,4.11,0,0,1,151.3933,157.6659Z" style="fill:#ff3365;opacity:0.25;isolation:isolate"/>
                    <path d="M140.3741,171.9971a8.5775,8.5775,0,0,1-3.053-.6358l.9125-2.4058a4.0419,4.0419,0,0,0,3.3685.18c.81-.4381,1.4668-1.6754,1.7994-3.5141l2.5583.4554c-.469,2.6291-1.5009,4.4163-3.0615,5.3012A4.9327,4.9327,0,0,1,140.3741,171.9971Z" style="fill:#ff3365;opacity:0.25;isolation:isolate"/>
                    <path d="M146.4606,165.9208a8.23,8.23,0,0,1-2.9368-.61l.8753-2.3077a3.8769,3.8769,0,0,0,3.2313.173c.7771-.42,1.407-1.6072,1.7261-3.371l2.4541.4369c-.45,2.522-1.44,4.2364-2.9286,5.0853A4.7329,4.7329,0,0,1,146.4606,165.9208Z" style="fill:#ff3365;opacity:0.25;isolation:isolate"/>
                </g>
            </g>
            <path d="M115.9055,84.5619a.6022.6022,0,0,1,.8223.068l7.6245,8.6278a.5533.5533,0,0,1-.0543.7805l-.0157.0131a.6024.6024,0,0,1-.8224-.068l-7.6127-8.6392a.5528.5528,0,0,1,.0555-.78l0,0Z" style="fill:#ff3365"/>
            <path id="Rectangle-path-2" d="M123.6913,94.0038a.6035.6035,0,0,1-.0034-.8535h0l.0034-.0034,15.3635-15.3635a.6059.6059,0,0,1,.8569.8569L124.5482,94.0038a.6035.6035,0,0,1-.8535.0034h0Z" style="fill:#ff3365"/>
            <path id="Shape-2" d="M140.252,85.7567a.7149.7149,0,0,0-.7186.7112.7305.7305,0,0,0,.0036.0754q.06.6316.06,1.2871a14.6341,14.6341,0,1,1-6.5782-12.1918.7152.7152,0,0,0,1.1083-.5721.834.834,0,0,0-.3694-.7031,16.0892,16.0892,0,1,0,7.3051,13.467,10.543,10.543,0,0,0-.06-1.3944A.7507.7507,0,0,0,140.252,85.7567Z" style="fill:#ff3365"/>
        </g>
    </g>
</svg>