<svg id="Layer_1" data-name="Layer 1" xmlns="http://www.w3.org/2000/svg" width="250" height="250" viewBox="0 0 250 250"><title>confirm-user-01-01</title><g id="Artboard"><g id="confirm"><ellipse id="Oval" cx="124.9755" cy="126.0683" rx="72.1602" ry="72.6477" style="fill:#eff3f7"/><g id="Group" style="opacity:0.30000001192092896"><rect id="Rectangle-path" x="221.4946" y="89.6609" width="19.4794" height="4.1792" style="fill:#ff3365;opacity:0.5;isolation:isolate"/><rect x="204.4492" y="89.6609" width="9.7433" height="4.1792" style="fill:#ff3365;opacity:0.5;isolation:isolate"/></g><g id="Group-2" style="opacity:0.30000001192092896"><rect x="34.2434" y="143.2685" width="19.4794" height="4.1792" style="fill:#ff3365;opacity:0.5;isolation:isolate"/><rect x="17.198" y="143.2685" width="9.7433" height="4.1792" style="fill:#ff3365;opacity:0.5;isolation:isolate"/></g><g id="Group-3" style="opacity:0.46000000834465027"><g style="opacity:0.5"><rect x="195.0343" y="121.8155" width="34.2346" height="4.1792" style="fill:#72d6c8"/></g></g><path d="M51.7905,59.0276a9.2638,9.2638,0,1,1,6.5505-2.7133A9.2638,9.2638,0,0,1,51.7905,59.0276Zm0-14.252a4.9882,4.9882,0,1,0,4.9882,4.9882,4.9882,4.9882,0,0,0-4.9882-4.9882Z" style="fill:#ff3365;opacity:0.30000001192092896;isolation:isolate"/><path d="M166.9254,205.2733A11.2135,11.2135,0,1,1,178.12,194.0409v0q.0006.36-.0219.72A11.23,11.23,0,0,1,166.9254,205.2733ZM166.89,187.092a6.9829,6.9829,0,1,0,1.34.1276,7.0938,7.0938,0,0,0-1.34-.1205Z" style="fill:#ff3365;opacity:0.30000001192092896;isolation:isolate"/><circle id="Oval-2" cx="150.3291" cy="58.54" r="4.3881" style="fill:#ff3365;opacity:0.30000001192092896;isolation:isolate"/><path d="M124.9755,208.955a82.8867,82.8867,0,1,1,82.8867-82.8867h0a82.8865,82.8865,0,0,1-82.8863,82.8867h0Zm0-165.0557a82.1691,82.1691,0,1,0,82.169,82.1692h0a82.169,82.169,0,0,0-82.1688-82.1692Z" style="fill:#72d6c8"/><path d="M124.9761,209.4551h-.0005a83.3865,83.3865,0,1,1,.0005,0Zm-.0005-165.0557a81.669,81.669,0,1,0,81.6689,81.669A81.7618,81.7618,0,0,0,124.9756,44.3994Z" style="fill:#72d6c8"/><g id="confirm-user"><path id="Shape" d="M123.8105,83.8021c-10.8387,0-19.6611,10.1391-19.6611,22.61s8.8153,22.61,19.6611,22.61,19.6611-10.1391,19.6611-22.61S134.6563,83.8021,123.8105,83.8021Zm0,44.5089c-10.45,0-18.9536-9.829-18.9536-21.9057S113.3469,84.5,123.8105,84.5s18.9536,9.829,18.9536,21.9056S134.26,128.311,123.8105,128.311Z" style="fill:#fff"/><path d="M124.302,129.0227c-11.1128,0-20.1526-10.3636-20.1526-23.1018s9.04-23.1018,20.1526-23.1018,20.1526,10.3635,20.1526,23.1018S135.4148,129.0227,124.302,129.0227Zm-19.4331-23.1018c0,12.3483,8.7192,22.3929,19.44,22.3929s19.44-10.0446,19.44-22.3929c0,12.3483-8.7193,22.3929-19.44,22.3929S104.8689,118.2692,104.8689,105.9209Zm19.44-21.6841c-10.322,0-18.7279,9.7256-18.7279,21.6841s8.3987,21.684,18.7279,21.684,18.7279-9.7255,18.7279-21.684S134.6312,84.244,124.302,84.244Z" style="fill:#52a098"/><g id="Expanded"><path d="M141.305,99.2829a2.8637,2.8637,0,0,1-.3937.4652,23.2289,23.2289,0,0,1,.7159,3.1711,5.7269,5.7269,0,0,0,2.2047-1.94Zm-8.59,28.153a16.8272,16.8272,0,0,0,3.0494-1.8539v-.78H132.73Zm-18.2533-1.94a16.7869,16.7869,0,0,0,3.0351,1.8611v-2.634H114.476Zm-7.33-25.8768a7.7381,7.7381,0,0,0,2.0473,1.31,20.5566,20.5566,0,0,1,.9162-2.9491,4.24,4.24,0,0,1-.816-.5512Z" style="fill:#fff"/><path d="M153.56,139.0751l-20.8016-5.7265v-8.59h3.0494v.78c5.49-4.0443,9.1266-11.1524,9.1266-19.2411,0-12.5913-8.84-22.8418-19.7136-22.8418S105.507,93.7066,105.507,106.2979c0,8.0171,3.5791,15.0822,9.005,19.1481v-.766h3.0351v8.6471L96.6452,139.054a7.6092,7.6092,0,0,0-4.9319,7.1582v7.2512h66.8574v-7.2082A7.6379,7.6379,0,0,0,153.56,139.0751ZM141.305,99.2829l2.52,1.6964a5.7269,5.7269,0,0,1-2.2047,1.94,23.2469,23.2469,0,0,0-.7158-3.1711A2.8612,2.8612,0,0,0,141.305,99.2829Zm-32.0542-1.854a4.2367,4.2367,0,0,0,.816.5512,20.5581,20.5581,0,0,0-.8876,2.9491,7.7369,7.7369,0,0,1-2.0115-1.31Z" style="fill:#fff"/><path d="M161.6271,146.24v10.3078H88.6138v-10.293a10.6727,10.6727,0,0,1,7.0651-10.0215l18.783-5.1753v-6.335h3.0351v8.647l-20.9019,5.7265a7.6094,7.6094,0,0,0-4.932,7.1582v7.2512h66.9075v-7.2512a7.6377,7.6377,0,0,0-5.0466-7.1582L132.7224,133.37v-8.59h3.0494v6.2562l18.6685,5.14A10.737,10.737,0,0,1,161.6271,146.24Z" style="fill:#fff"/><path d="M109.2508,97.4289a4.24,4.24,0,0,0,.816.5512,20.5581,20.5581,0,0,0-.8876,2.9491,7.7369,7.7369,0,0,1-2.0115-1.31Z" style="fill:#fff"/><path d="M143.8247,100.965a5.7269,5.7269,0,0,1-2.2047,1.94,23.2469,23.2469,0,0,0-.7158-3.1711,2.86,2.86,0,0,0,.3937-.4653Z" style="fill:#fff"/></g><path d="M124.7935,129.0227c-10.84,0-19.6611-10.1459-19.6611-22.61s8.8208-22.61,19.6611-22.61,19.6611,10.1459,19.6611,22.61S135.641,129.0227,124.7935,129.0227Zm0-42.2073c-9.17,0-16.628,8.7917-16.628,19.597s7.4576,19.597,16.628,19.597,16.6281-8.7917,16.6281-19.597-7.4576-19.6041-16.6281-19.6041Z" style="fill:#fff"/><path d="M161.1666,158.514H88.4205V148.3256a10.555,10.555,0,0,1,7.0464-9.9058l18.7071-5.1158v-6.2476h3.0311v8.54l-20.8253,5.66a7.5166,7.5166,0,0,0-4.9211,7.0755v7.1746h66.6625v-7.1746a7.5392,7.5392,0,0,0-5.0351-7.0755l-20.7184-5.66v-8.4906h3.0311v6.1911l18.6,5.08a10.6194,10.6194,0,0,1,7.132,9.9482Z" style="fill:#fff"/><g id="Group-2-2" style="opacity:0.5299999713897705"><path d="M138.7076,102.804h-.3161a15.26,15.26,0,0,1-9.9928-5.0656,11.7955,11.7955,0,0,1-7.4712,4.1219c-5.51.9159-11.8031-1.1311-13.7212-2.9214l2.1552-2.1165c.9195.8674,6.1637,2.9422,11.0775,2.13a8.4533,8.4533,0,0,0,6.5373-4.5035l1.2787-2.4634,1.4368,2.394c1.6882,2.859,5.7471,5.364,8.8577,5.475a3.2531,3.2531,0,0,0,2.9454-1.249l2.5359,1.6515A6.2391,6.2391,0,0,1,138.7076,102.804Z" style="fill:#fff"/></g><path d="M124.5563,129.6057c-11.253,0-20.4069-10.4943-20.4069-23.3933s9.1539-23.3933,20.4069-23.3933,20.407,10.4943,20.407,23.3933S135.8094,129.6057,124.5563,129.6057Zm-19.6784-23.3933c0,12.5042,8.8293,22.6755,19.6856,22.6755s19.6856-10.1713,19.6856-22.6755c0,12.5042-8.8293,22.6755-19.6856,22.6755S104.8779,118.7166,104.8779,106.2124Zm19.6856-21.9577c-10.4523,0-18.9642,9.8483-18.9642,21.9577S114.104,128.17,124.5635,128.17s18.9643-9.8483,18.9643-21.9577-8.5119-21.95-18.9715-21.95Z" style="fill:#72d6c8"/><path d="M160.1624,154.5821H147.4829l.8594-.6294a2.7334,2.7334,0,0,0,.6058-.6223l.1056-.1469h9.6717V146.89a6.6953,6.6953,0,0,0-4.4519-6.2936l-10.348-2.8531-.07-.1049c-.2113-.3147-.4367-.6084-.6621-.8881l-.7045-.8461,12.2569,3.3426a8.1223,8.1223,0,0,1,5.4381,7.6152Zm-7.1992-15.0981,1.5779.4336.3029.1189-.3029-.1189Z" style="fill:#72d6c8"/><path d="M162.12,158.514H86.4544V147.2074a11.6718,11.6718,0,0,1,7.6694-10.9954l18.6079-5.19v-5.9315l.5216.2521a5.726,5.726,0,0,0,.6906.2744l.2571.0815v6.4355l-19.6291,5.457A10.1614,10.1614,0,0,0,87.96,147.17v9.8611h72.7273V147.2a10.2773,10.2773,0,0,0-6.81-9.6386L134.41,132.1563v-6.4282l.4114.0519h.1763a1.2931,1.2931,0,0,0,.404-.0668l.4775-.1482v5.4421l18.461,5.1307a11.7814,11.7814,0,0,1,7.809,11.0252Zm-7.8351-21.6272a8.9,8.9,0,0,1,.9193.3838q-.4491-.2094-.9193-.3768Zm-60.6291,0-.32.1256Z" style="fill:#72d6c8"/><g style="opacity:0.5299999713897705"><path d="M137.11,104.2747h-.3511A15.3507,15.3507,0,0,1,126.802,99.27a12.57,12.57,0,0,1-7.387,3.968c-5.7438,1.0009-12.0284-1.2082-14.17-3.1172l-.7022-.622h.9269a1.1362,1.1362,0,0,0,.653-.193l.2036-.143.1967.15c2.0644,1.5372,7.5133,3.3961,12.6392,2.4952a10.9041,10.9041,0,0,0,7.0219-4.0823l.5336-.715.5688.6649c2.4927,2.9313,6.32,5.0047,9.5005,5.0976h.2879a5.5082,5.5082,0,0,0,4.3606-1.8946l.1123-.1359h.2458a1.2766,1.2766,0,0,0,.52-.0929l.4564-.2v.5076a1.2072,1.2072,0,0,0,0,.2217l.0421.1644-.1053.1358A6.8941,6.8941,0,0,1,137.11,104.2747Zm-10.3221-6.0485.2669.3c2.6051,2.86,6.5162,4.9117,9.7392,5.0046h.316a6.2641,6.2641,0,0,0,4.8029-2.03,6.2631,6.2631,0,0,1-4.7678,2.0018h-.316c-3.37-.1215-7.3869-2.2735-9.999-5.3406a11.5828,11.5828,0,0,1-7.4783,4.3469,20.2475,20.2475,0,0,1-8.6719-.5863,20.0745,20.0745,0,0,0,8.6719.6077,11.8793,11.8793,0,0,0,7.2325-4.0251Zm-20.5318,1.83a12.2,12.2,0,0,0,2.2119,1.1582,11.86,11.86,0,0,1-2.1978-1.1725Z" style="fill:#72d6c8"/></g><circle cx="156.2513" cy="154.5821" r="23.5933" style="fill:#eff3f7"/><path d="M145.2527,150.5618h0a.9831.9831,0,0,1,1.3859.1108h0l8.9254,10.4762a.9831.9831,0,0,1-.1107,1.3858h0a.9831.9831,0,0,1-1.3858-.1107h0l-8.9254-10.4762A.9831.9831,0,0,1,145.2527,150.5618Z" style="fill:#ff3365"/><path d="M154.7316,162.4917h0a.9831.9831,0,0,1,0-1.39L172.11,143.7233a.9829.9829,0,0,1,1.39,0h0a.9829.9829,0,0,1,0,1.39l-17.3781,17.3781a.9829.9829,0,0,1-1.39,0Z" style="fill:#ff3365"/><path d="M174.94,151.644a.8591.8591,0,0,0-.862.8562h0q0,.0369.0029.0738c.0426.5041.071,1.0153.071,1.5335a17.43,17.43,0,1,1-7.81-14.5255.8448.8448,0,0,0,1.32-.71,1.0011,1.0011,0,0,0-.4472-.8378,19.1684,19.1684,0,1,0,8.6971,16.0732,11.7321,11.7321,0,0,0-.0781-1.6613A.8946.8946,0,0,0,174.94,151.644Z" style="fill:#ff3365"/></g></g></g></svg>